<svg width="23" height="30" viewBox="0 0 23 30" fill="none" xmlns="http://www.w3.org/2000/svg">
<path d="M12.9375 7.12358V0H6.82813C5.97032 0 5.14764 0.355508 4.54108 0.988317C3.93451 1.62113 3.59375 2.4794 3.59375 3.37433V22.8704C3.59375 23.7654 3.93451 24.6236 4.54108 25.2564C5.14764 25.8893 5.97032 26.2448 6.82813 26.2448H19.7656C20.1904 26.2448 20.611 26.1575 21.0034 25.9879C21.3958 25.8183 21.7523 25.5698 22.0527 25.2564C22.353 24.9431 22.5913 24.5711 22.7538 24.1617C22.9164 23.7523 23 23.3136 23 22.8704V10.4979H16.1719C15.3141 10.4979 14.4914 10.1424 13.8848 9.50959C13.2783 8.87678 12.9375 8.01851 12.9375 7.12358Z" fill="#4C6ACA"/>
<path d="M15.0938 7.12358V0.749847L22.2813 8.24835H16.1719C15.8859 8.24835 15.6117 8.12985 15.4095 7.91891C15.2073 7.70798 15.0938 7.42189 15.0938 7.12358Z" fill="#4C6ACA"/>
<path d="M2.16056 3.9397C1.52889 4.17188 0.981829 4.60282 0.594847 5.17309C0.207864 5.74336 2.57863e-05 6.42485 0 7.12356V22.8764C0 24.7657 0.719391 26.5776 1.99991 27.9135C3.28044 29.2495 5.0172 30 6.82813 30H16.1633C17.572 30 18.7695 29.0612 19.2136 27.7504H6.82813C5.58907 27.7504 4.40076 27.2369 3.52461 26.3229C2.64847 25.4088 2.15625 24.1691 2.15625 22.8764L2.16056 3.9397Z" fill="#4C6ACA"/>
</svg>
